# xmcd
#
# Track frame offsets:
#	150
#	10474
#	24759
#	43739
#	62976
#	63837
#	68303
#	78699
#	83582
#	94366
#	99734
#	114009
#	121079
#	128645
#	149245
#	158782
#	167159
#
# Disc length: 2281 seconds
#
# Revision: 0
# Processed by: cddbd v1.5.2PL0 Copyright (c) Steve Scherf et al.
# Submitted via: audiograbber 1.83.01
#
DISCID=db08e711
DTITLE=TRIffNIX - HoRNS - Wei[h]n8!
DYEAR=1900
DGENRE=
TTITLE0=Adeste Fideles
TTITLE1=WWW - Wie Waldis Winter
TTITLE2=Slipping Through My Fingers
TTITLE3=All I Want For Christmas
TTITLE4=Rock X-Mas 2010
TTITLE5=Stop the Cavalry
TTITLE6=Little Drummer Boy
TTITLE7=White Christmas
TTITLE8=Once Upon A Long Ago
TTITLE9=Winter Wonderland
TTITLE10=Do They Know It's Christmas
TTITLE11=Last Christmas
TTITLE12=Feliz Navidad
TTITLE13=These Are The Days Of Our Life
TTITLE14=Es wird scho glei dumpa
TTITLE15=Stille Nacht
TTITLE16=We Wish You A Merry Christmas
EXTD=
EXTT0=
EXTT1=
EXTT2=
EXTT3=
EXTT4=
EXTT5=
EXTT6=
EXTT7=
EXTT8=
EXTT9=
EXTT10=
EXTT11=
EXTT12=
EXTT13=
EXTT14=
EXTT15=
EXTT16=
PLAYORDER=
